# xmcd
#
# Track frame offsets: 
#        150
#        35605
#        63796
#        92897
#        115109
#        154580
#        170568
#        194279
#        228511
#
# Disc length: 3495 seconds
#
# Revision: 0
# Processed by: cddbd v1.5.2PL0 Copyright (c) Steve Scherf et al.
# Submitted via: ExactAudioCopy v1.0b3
#
DISCID=6e0da509
DTITLE=Raphael Preston, Justin Chubb - Angel
DYEAR=2000
DGENRE=Pop
TTITLE0=Ghost
TTITLE1=Great Big Beautiful City
TTITLE2=Colors
TTITLE3=Safe From Harm
TTITLE4=Spirit Moving
TTITLE5=Walking Away
TTITLE6=No Different
TTITLE7=No Different (Remix)
TTITLE8=Eight
EXTD=
EXTT0=
EXTT1=
EXTT2=
EXTT3=
EXTT4=
EXTT5=
EXTT6=
EXTT7=
EXTT8=
PLAYORDER=
